<?xml version="1.0" encoding="utf-8"?>
<!-- Generator: Adobe Illustrator 13.0.0, SVG Export Plug-In  -->
<!DOCTYPE svg PUBLIC "-//W3C//DTD SVG 1.1//EN" "http://www.w3.org/Graphics/SVG/1.1/DTD/svg11.dtd" [
	<!ENTITY ns_flows "http://ns.adobe.com/Flows/1.0/">
]>
<svg version="1.1"
	 xmlns="http://www.w3.org/2000/svg" xmlns:xlink="http://www.w3.org/1999/xlink" xmlns:a="http://ns.adobe.com/AdobeSVGViewerExtensions/3.0/"
	 x="0px" y="0px" width="580px" height="637px" viewBox="991.924 345.385 580 637" enable-background="new 991.924 345.385 580 637"
	 xml:space="preserve">
<defs>
</defs>
<rect x="678.424" y="87.385" display="none" fill="none" stroke="#1A171B" width="1176" height="1172.093"/>
<line display="none" fill="none" stroke="#1A171B" x1="678.424" y1="868.589" x2="1854.424" y2="868.589"/>
<line display="none" fill="none" stroke="#1A171B" x1="678.424" y1="673.432" x2="1854.424" y2="673.432"/>
<line display="none" fill="none" stroke="#1A171B" x1="678.424" y1="478.273" x2="1854.424" y2="478.273"/>
<line display="none" fill="none" stroke="#1A171B" x1="1462.52" y1="87.385" x2="1462.52" y2="1259.478"/>
<line display="none" fill="none" stroke="#1A171B" x1="1266.424" y1="87.385" x2="1266.424" y2="1259.478"/>
<line display="none" fill="none" stroke="#1A171B" x1="1070.328" y1="87.385" x2="1070.328" y2="1259.478"/>
<rect x="481.424" y="89.385" display="none" fill="#607D8B" stroke="#607D8B" stroke-width="4" width="1680" height="1310"/>
<path display="none" fill="#849FAC" stroke="#849FAC" stroke-width="4" d="M461.555,405.491c0,0,46.498-113.995,112.494,4.5
	s28.499,73.497,157.492,134.993c188.163,89.705,257.987,146.993,263.987,20.999c12.274-257.751,104.995-179.991,140.993-124.494
	c51.475,79.358-16.5,302.983,172.491,287.985c188.991-15,137.994-1.5,206.99-92.995c68.996-91.496-25.499-140.993,89.995-176.991
	c125.729-39.188,76.497,65.997,226.489-40.498s25.498-151.492,142.492-191.99s85.495-10.5,134.993-59.997
	s34.499-164.992,34.499-164.992l-1856.908,12l13.5,374.981L461.555,405.491z"/>
<path display="none" fill="#849FAC" stroke="#849FAC" stroke-width="4" d="M508.43,958.89l240,34c0,0,20,12,86-20s37.2-36.915,92-60
	c58.164-24.502,134-106,194-10s26,184,144,196s212,24,244-20s-45.043-70.697-4-108c54.831-49.835,22.42-159.269,90-122
	c72.831,40.165,14.164,83.498,140,88c134.45,4.811,192-42,192-42l238,62l-20,290l-36,284l-1636-74l-470-146l112-418L508.43,958.89z"
	/>
<path fill="#D6D8C0" stroke="#D6D8C0" stroke-width="4" d="M1424.551,1176.453c49.092-83.995,46.024-166.491,9.204-239.987
	c-48.555-96.918-51.565-133.081-27.018-197.081c37.362-97.413,61.674-106.662,60.687-196c-1.364-123.333-92.634-188-195.014-188
	c-137.739,0-215.25,154.692-206.736,175.5c13.637,33.333,107.505-89.421,213.553-63.5c32.73,8,44.657,43.243,42.958,77.333
	c-1.363,27.333-10.228,87.333-49.094,136c-20.783,26.021-32.73,42.666-38.185,56.666c-17.241,44.251-20.532,82.086-5.191,197.58
	c18.509,139.33-40.495,167.924-43.563,244.42L1424.551,1176.453z"/>
<path fill="#683262" stroke="#683262" stroke-width="4" d="M1090.083,532.059c0,0,1.184,2.329,2.435,2.586
	c1.58,0.327,5.164-1.761,5.626-2.668c0.397-0.775-1.043-3.267-1.043-3.267L1090.083,532.059z"/>
<path fill="#683262" stroke="#683262" stroke-width="4" d="M1079.501,537.736c0,0,0.661,1.803,1.501,2.07
	c1.063,0.339,3.656-1,4.033-1.646c0.323-0.553-0.503-2.493-0.503-2.493L1079.501,537.736z"/>
<path fill="#683262" stroke="#683262" stroke-width="4" d="M1116.4,516.306c0,0,2.05,4.68,4.214,5.199
	c2.736,0.657,8.938-3.539,9.741-5.363c0.686-1.559-1.806-6.567-1.806-6.567L1116.4,516.306z"/>
<path fill="#683262" stroke="#683262" stroke-width="4" d="M1188.471,478.408c0,0,1.018,6.679,3.603,8.082
	c3.27,1.775,12.626-1.461,14.275-3.516c1.408-1.755-0.059-9.003-0.059-9.003L1188.471,478.408z"/>
<path fill="#683262" stroke="#683262" stroke-width="4" d="M1252.06,469.243c0,0-2.199,7.505-0.174,10.24
	c2.563,3.464,13.961,4.646,16.698,3.297c2.336-1.152,4.343-9.475,4.343-9.475L1252.06,469.243z"/>
<path fill="#683262" stroke="#683262" stroke-width="4" d="M1220.324,471.086c0,0-0.745,6.714,1.389,8.739
	c2.699,2.56,12.576,1.856,14.699,0.299c1.814-1.331,2.273-8.712,2.273-8.712L1220.324,471.086z"/>
<path fill="#683262" stroke="#683262" stroke-width="4" d="M1136.192,504.304c0,0,2.342,5.345,4.813,5.938
	c3.125,0.75,10.208-4.042,11.125-6.125c0.783-1.78-2.063-7.5-2.063-7.5L1136.192,504.304z"/>
<path fill="#683262" stroke="#683262" stroke-width="4" d="M1159.997,491.6c0,0,1.96,5.805,4.49,6.651
	c3.2,1.071,11.048-3.294,12.197-5.389c0.982-1.79-1.471-8.034-1.471-8.034L1159.997,491.6z"/>
<path fill="#683262" stroke="#683262" stroke-width="4" d="M1284.139,480.344c0,0-6.236,5.955-5.812,9.681
	c0.539,4.72,10.771,12.132,14.127,12.352c2.866,0.188,9.37-6.651,9.37-6.651L1284.139,480.344z"/>
<path fill="#683262" stroke="#683262" stroke-width="4" d="M1313.709,510.297c0,0-10.458,0.673-12.973,4.474
	c-3.187,4.816,0.551,19.712,3.503,22.539c2.52,2.415,13.918,1.127,13.918,1.127L1313.709,510.297z"/>
<path fill="#683262" stroke="#683262" stroke-width="4" d="M1321.764,549.545c0,0-10.107-2.767-13.723,0.008
	c-4.579,3.517-5.895,18.818-4.022,22.452c1.596,3.104,12.793,5.595,12.793,5.595L1321.764,549.545z"/>
<path fill="#683262" stroke="#683262" stroke-width="4" d="M1316.227,587.761c0,0-10.913-4.722-15.418-2.181
	c-5.706,3.22-9.626,20.199-8.104,24.581c1.299,3.741,13.479,8.329,13.479,8.329L1316.227,587.761z"/>
<path fill="#683262" stroke="#683262" stroke-width="4" d="M1103.166,525.558c0,0,1.378,2.849,2.834,3.164
	c1.839,0.4,6.011-2.154,6.549-3.264c0.462-0.949-1.214-3.997-1.214-3.997L1103.166,525.558z"/>
<path fill="#683262" stroke="#683262" stroke-width="4" d="M1303.484,629.891c0,0-11.374-7.479-16.97-5.5
	c-7.088,2.508-14.917,20.891-14.076,26.135c0.717,4.477,13.548,12.053,13.548,12.053L1303.484,629.891z"/>
<path fill="#683262" stroke="#683262" stroke-width="4" d="M1280.738,675.68c0,0-9.428-11.315-15.67-11.002
	c-7.907,0.398-21.07,17.059-21.703,22.77c-0.542,4.875,10.337,16.746,10.337,16.746L1280.738,675.68z"/>
<path fill="#683262" stroke="#683262" stroke-width="4" d="M1251.97,713.129c0,0-13.375-10.193-20.278-8.252
	c-8.744,2.461-19.294,24.375-18.573,30.896c0.613,5.566,15.752,16.009,15.752,16.009L1251.97,713.129z"/>
<path fill="#683262" stroke="#683262" stroke-width="4" d="M1227.669,768.116c0,0-17.326-6.884-23.568-2.989
	c-7.907,4.933-10.344,30.471-7.17,37.013c2.706,5.588,21.905,12.246,21.905,12.246L1227.669,768.116z"/>
<path fill="#683262" stroke="#683262" stroke-width="4" d="M1222.27,835.168c0,0-19.868-5.143-26.083-0.078
	c-7.874,6.417-6.753,34.458-2.334,41.132c3.769,5.7,25.641,10.346,25.641,10.346L1222.27,835.168z"/>
<path fill="#683262" stroke="#683262" stroke-width="4" d="M1232.503,911.021c0,0-21.852-4.093-28.124,1.783
	c-7.945,7.444-4.365,37.435,0.963,44.274c4.544,5.844,28.515,9.261,28.515,9.261L1232.503,911.021z"/>
<path fill="#36474F" stroke="#36474F" stroke-width="4" d="M1423.007,1180.953c45.931-83.281,32.865-170.697-1.583-243.568
	c-45.427-96.094-62.966-132.543-40-196c34.956-96.584,62.926-103.517,62.001-192.097c-1.275-122.285-86.667-186.403-182.452-186.403
	c-128.866,0-202.54,149.908-194.575,170.539c12.759,33.05,100.808-86.74,200.026-61.04c30.621,7.932,52.591,47.199,51,81
	c-1.275,27.101-16.637,80.747-53,129c-19.443,25.801-33.436,45.375-38.539,59.256c-16.13,43.875-19.21,81.389-4.856,195.9
	c17.316,138.146-37.887,166.498-40.758,242.344L1423.007,1180.953z"/>
<text transform="matrix(1 0 0 1 923.4238 311.3848)" display="none" fill="#683262" font-family="'Voltaire'" font-size="140">TENTACLE LABS</text>
</svg>
